<?xml version="1.0" encoding="utf-8"?>
<!-- Generator: Adobe Illustrator 21.0.0, SVG Export Plug-In . SVG Version: 6.00 Build 0)  -->
<svg version="1.1" id="Layer_1" xmlns="http://www.w3.org/2000/svg" xmlns:xlink="http://www.w3.org/1999/xlink" x="0px" y="0px"
	 viewBox="0 0 664.2 81.6" style="enable-background:new 0 0 664.2 81.6;" xml:space="preserve">
<style type="text/css">
	.st0{fill:#FFFFFF;}
</style>
<path class="st0" d="M28.3,0.6H-0.1v81h29.4c13.8,0,24.4-3.8,31.9-11.5s11.2-17.3,11.2-29c0-11.9-3.8-21.7-11.3-29.2
	S42.7,0.6,28.3,0.6L28.3,0.6z M55.3,66.7c-7,6.4-15.7,9.6-26.2,9.6H6.2V5.7h22.4c10.9,0,19.8,3.3,26.7,9.9s10.3,15.1,10.3,25.5
	C65.7,51.7,62.3,60.3,55.3,66.7z M235.1,0l-37.4,81.6h6.6l12.8-28h39.6l12.8,28h6.6L238.7,0H235.1z M219.4,48.4l17.4-38.1l17.5,38.1
	H219.4z M446.2,41.2c10.3-3.8,15.4-10.4,15.4-19.7c0-6.4-2.3-11.5-6.9-15.3s-11.2-5.7-19.9-5.7h-20.7v81h6.3V42.6h11
	c5.1,0,8.9,0.9,11.5,2.8c2.6,1.8,6.3,6.5,11,13.9L468,81.5h7.4l-18.3-28C452.5,46.6,448.8,42.5,446.2,41.2z M433.7,37.5h-13.4V5.8
	h13.2c6.9,0,12.2,1.4,15.8,4.2c3.7,2.8,5.5,6.7,5.5,11.7c0,5.1-1.8,9-5.4,11.7C445.8,36.1,440.6,37.5,433.7,37.5L433.7,37.5z
	 M621.7,41.1l38.8-40.5h-7.8l-38.9,40.3V0.6h-6.3v81h6.3V41.1l42.4,40.5h8L621.7,41.1L621.7,41.1z"/>
</svg>
